<svg width="256" height="256" viewBox="0 0 256 256" fill="none" xmlns="http://www.w3.org/2000/svg">
  <defs>
    <linearGradient id="bg" x1="24" y1="20" x2="232" y2="236" gradientUnits="userSpaceOnUse">
      <stop stop-color="#1F2F4E"/>
      <stop offset="1" stop-color="#0B162D"/>
    </linearGradient>
  </defs>
  <rect x="18" y="18" width="220" height="220" rx="52" fill="url(#bg)"/>
  <path d="M69 164c40-5 75-25 98-66-18 9-38 16-59 16 18-10 33-26 41-46-15 11-32 19-51 24-5 2-11 3-17 3 7 6 13 14 15 24 4 20-9 39-27 45z" fill="#F5F8FF"/>
  <path d="M83 176c45-3 86-24 112-70-20 10-43 19-68 21 23-12 41-33 48-58-17 12-37 22-59 27-15 4-31 5-45 2 11 7 19 18 22 32 5 22-4 39-10 46z" fill="#DCE6FF" fill-opacity="0.45"/>
</svg>
