<svg width="920" height="260" viewBox="0 0 920 260" fill="none" xmlns="http://www.w3.org/2000/svg">
  <defs>
    <linearGradient id="bg" x1="24" y1="20" x2="232" y2="236" gradientUnits="userSpaceOnUse">
      <stop stop-color="#1F2F4E"/>
      <stop offset="1" stop-color="#0B162D"/>
    </linearGradient>
  </defs>
  <rect x="16" y="16" width="228" height="228" rx="52" fill="url(#bg)"/>
  <path d="M67 164c40-5 75-25 98-66-18 9-38 16-59 16 18-10 33-26 41-46-15 11-32 19-51 24-5 2-11 3-17 3 7 6 13 14 15 24 4 20-9 39-27 45z" fill="#F5F8FF"/>
  <path d="M81 176c45-3 86-24 112-70-20 10-43 19-68 21 23-12 41-33 48-58-17 12-37 22-59 27-15 4-31 5-45 2 11 7 19 18 22 32 5 22-4 39-10 46z" fill="#DCE6FF" fill-opacity="0.45"/>
  <text x="280" y="130" font-size="92" font-family="Georgia, 'Times New Roman', serif" fill="#0F1E37" font-weight="700">OpenQuery</text>
  <text x="282" y="182" font-size="34" font-family="-apple-system, BlinkMacSystemFont, 'Segoe UI', sans-serif" fill="#4D6188" font-weight="500">Local-first SQL Copilot with Guardrails</text>
</svg>
